<svg xmlns="http://www.w3.org/2000/svg" viewBox="0 0 300 300" fill="none">
    <g clip-path="url(#clip0)">
        <path
            d="M93.5999 61.9497L112.65 61.9497C119.7 61.9497 125.4 67.6497 125.4 74.6997C125.4 81.7497 119.7 87.4497 112.65 87.4497L93.5999 87.4497C86.5498 87.4497 80.8499 81.7497 80.8499 74.6997C80.8499 67.6497 86.6999 61.9497 93.5999 61.9497Z"
            fill="url(#paint0_linear)" />
        <path
            d="M46.05 162.6L106.35 162.6C113.4 162.6 119.1 168.3 119.1 175.35C119.1 182.4 113.4 188.1 106.35 188.1L46.05 188.1C39 188.1 33.3 182.4 33.3 175.35C33.3 168 39 162.6 46.05 162.6Z"
            fill="url(#paint1_linear)" />
        <path
            d="M244.5 61.9497L172.35 61.9497L150.75 61.9497C143.7 61.9497 138 67.6497 138 74.6997C138 80.6997 142.5 85.7997 148.2 87.1497L166.65 87.1497C166.95 87.1497 167.55 87.1497 167.85 87.1497C168.15 87.1497 168.75 87.1497 169.05 87.1497C174.75 88.3497 179.25 93.4497 179.25 99.5997C179.25 106.65 173.55 112.35 166.5 112.35L165.9 112.35L163.5 112.35L84.75 112.35C79.05 113.55 74.55 118.65 74.55 124.8C74.55 130.95 79.05 135.9 84.75 137.25L159 137.25L166.05 137.25L173.1 137.25C180.15 137.25 185.85 142.95 185.85 150C185.85 157.05 180.15 162.75 173.1 162.75L159.75 162.75L154.65 162.75L141.9 162.75C136.2 163.95 131.7 169.05 131.7 175.2C131.7 181.35 136.2 186.3 141.9 187.65L150.15 187.65L153.9 187.65C154.8 187.65 155.55 187.65 156.45 187.95C156.75 187.95 156.75 187.95 157.05 188.25C157.65 188.25 157.95 188.55 158.7 188.55C159 188.55 159.3 188.85 159.6 188.85C159.9 189.15 160.5 189.15 160.8 189.45C161.1 189.75 161.4 189.75 161.7 190.05C162 190.35 162.3 190.65 162.6 190.95C162.9 191.25 162.9 191.25 163.2 191.55C163.5 191.85 163.8 192.15 164.1 192.45C164.4 192.75 164.4 193.05 164.7 193.35C165 193.65 165 194.25 165.3 194.55C165.3 194.85 165.6 195.15 165.6 195.45C165.9 196.05 165.9 196.35 165.9 197.1C165.9 197.4 165.9 197.7 166.2 197.7C166.2 198.3 166.5 199.35 166.5 200.25C166.5 207.3 160.8 213 153.75 213L153.15 213L145.5 213L33.3 213C32.4 213 31.65 213 30.75 212.7L14.25 212.7C7.19997 212.7 1.49997 218.4 1.49997 225.45C1.49997 232.5 7.19997 238.2 14.25 238.2L141.3 238.2L184.2 238.2L195.9 171.75L206.1 171.75L230.85 238.2L279.15 238.2L250.95 168C279.6 160.05 295.5 139.05 299.25 117.15C304.95 86.6998 287.7 61.9498 244.5 61.9497ZM255.3 119.1C252.75 132.75 243.9 141.3 227.7 141.3L201 141.3L208.65 97.1997L235.35 97.1998C251.85 97.1998 257.85 105.75 255.3 119.1Z"
            fill="url(#paint2_linear)" fill-opacity="0.95" />
    </g>
    <defs>
        <linearGradient id="paint0_linear" x1="103.158" y1="61.9119" x2="103.158" y2="87.3267"
            gradientUnits="userSpaceOnUse">
            <stop stop-color="#27AE60" />
            <stop offset="1" stop-color="#34CDB1" />
        </linearGradient>
        <linearGradient id="paint1_linear" x1="76.1552" y1="162.618" x2="76.1552" y2="188.032"
            gradientUnits="userSpaceOnUse">
            <stop stop-color="#27AE60" />
            <stop offset="1" stop-color="#34CDB1" />
        </linearGradient>
        <linearGradient id="paint2_linear" x1="150.867" y1="61.9119" x2="150.867" y2="237.907"
            gradientUnits="userSpaceOnUse">
            <stop stop-color="#202F60" />
            <stop offset="1" stop-color="#205060" />
        </linearGradient>
        <clipPath id="clip0">
            <rect width="300" height="300" fill="white" />
        </clipPath>
    </defs>
</svg>
