<svg xmlns="http://www.w3.org/2000/svg" fill="none" viewBox="0 0 752 237">
    <path fill="url(#a)" fill-opacity=".95" d="M201.2 136c-5.1 29.4 9.7 48.3 32.4 48.3 14 0 25-6.4 31.6-14.6l-2.5 13.1h28.6l16.5-93.4001h-28.6L276.9 102.5c-3.6-8.3001-12.3-14.6001-26.3-14.6001-22.7.2-44.1 18.7001-49.4 48.1001Zm70.1 0c-2.8 14.8-13.8 23.1-24.6 23.1s-18.8-8.5-16.3-23.3 13.8-22.9 24.4-22.9c11 0 19.1 8.3 16.5 23.1Z"/>
    <path fill="url(#b)" fill-opacity=".95" d="m348.2 102.5 2.3-13.1001H322L297.6 227.3h28.6l10.2-57.6c3.8 7.8 12.5 14.4 26.3 14.4 22.9 0 44.3-18.6 49.6-48.3 5.3-29.6-9.7-47.9001-32.6-47.9001-13.7.2-24.9 6.6-31.5 14.6001Zm35.2 33.5c-2.8 14.8-14 23.3-24.8 23.3s-18.8-8.3-16.3-23.1c2.8-14.8 13.8-23.1 24.6-23.1 10.8-.2 19 7.9 16.5 22.9Z"/>
    <path fill="url(#c)" fill-opacity=".95" d="M457.7 136c-5.1 29.4 9.7 48.3 32.6 48.3 13.8 0 24.6-6.1 31.3-14.8l-2.3 13.3h28.6l21.8-123.9001h-28.6L533.5 102.3c-4.2-8.5001-14-14.2001-26.3-14.2001-22.8 0-44.4 18.5001-49.5 47.9001Zm69.9 0c-2.8 14.8-13.8 23.1-24.6 23.1s-18.8-8.5-16.3-23.3 13.8-22.9 24.4-22.9c11 0 19.3 8.3 16.5 23.1Z"/>
    <path fill="url(#d)" fill-opacity=".95" d="M615.5 111c9.7 0 16.5 5.9 14.8 17.2h-36C597.9 117 606 111 615.5 111Zm37.7 40.9h-30.5c-3.2 5.1-8.5 9.1-16.3 9.1-9.3 0-15.9-5.9-14.6-18.2h64.8c.8-2.8 1.5-5.5 1.9-8.3 5.1-28.4-11.2-46.3999-38.5-46.3999-27.7 0-50.4 18.3999-55.5 48.0999-5.3 29.6 11.2 48.1 38.5 48.1 23.5-.2 42.4-14.2 50.2-32.4Z"/>
    <path fill="url(#e)" fill-opacity=".95" d="M741.1 89.4004h-71.2L665.7 112.9h38.5l-47 47-4.2 22.7h72.4l4.4-23.5h-40.7l47.9-47 4.1-22.6996Z"/>
    <path fill="url(#f)" d="M64.3999 65.2998h12.7c4.7 0 8.5 3.8 8.5 8.5s-3.8 8.5-8.5 8.5h-12.7c-4.7 0-8.5-3.8-8.5-8.5s3.9-8.5 8.5-8.5Z"/>
    <path fill="url(#g)" d="M32.7 132.4h40.2c4.7 0 8.5 3.8 8.5 8.5-.0001 4.7-3.8001 8.5-8.5001 8.5h-40.2c-4.7 0-8.5-3.8-8.5-8.5C24.2 136 28 132.4 32.7 132.4Z"/>
    <path fill="url(#h)" fill-opacity=".95" d="M165 65.2998h-62.5c-4.7 0-8.5 3.8-8.5 8.5 0 4 3 7.4 6.8 8.3h13.9c3.8.8 6.8 4.2 6.8 8.3 0 4.7-3.8 8.5-8.5 8.5H58.5c-3.8.8-6.8 4.2002-6.8 8.3002 0 4.1 3 7.4 6.8 8.3h58.9c4.7 0 8.5 3.8 8.5 8.5s-3.8 8.5-8.5 8.5H96.6c-3.8.8-6.8 4.2-6.8 8.3 0 4.1 3 7.4 6.8 8.3h8c.6 0 1.1 0 1.7.2.2 0 .2 0 .4.2.4 0 .6.2 1.1.2.2 0 .4.2.6.2.2.2.6.2.8.4.2.2.4.2.6.4l.6.6.4.4.6.6c.2.2.2.4.4.6.2.2.2.6.4.8 0 .2.2.4.2.6.2.4.2.6.2 1.1 0 .2 0 .4.2.4 0 .4.2 1.1.2 1.7 0 4.7-3.8 8.5-8.5 8.5H24.2c-.6 0-1.1 0-1.7-.2h-11c-4.7 0-8.5 3.8-8.5 8.5s3.8 8.5 8.5 8.5h113.3l7.8-44.3h6.8l16.5 44.3h32.2L169.3 136c19.1-5.3 29.7-19.3 32.2-33.9 3.8-20.3002-7.7-36.8002-36.5-36.8002Zm7.2 38.1002c-1.7 9.1-7.6 14.8-18.4 14.8H136l5.1-29.4002h17.8c11 0 15 5.7 13.3 14.6002Z"/>
    <path fill="url(#i)" fill-opacity=".95" d="M426.4 175.3c5.5 0 10.3 3 13.1 7.5h1.5l13.4-76.9c1.5-8.6001-5.1-16.5001-13.9-16.5001-6.8 0-12.7 4.9-13.9 11.7001l-14.3 81.7h1c2.9-4.5 7.7-7.5 13.1-7.5Z"/>
    <path fill="url(#j)" d="M349.8 226.8c2-1.7 4.5-2.8 7.2-2.8.2-4.7 3.8-8.5 8.3-8.5.5 0 1.1 0 1.6.2 2-1.7 4.5-3 7-3.6 1.6-7 7.6-12.1 14.8-12.1 6.1 0 11.5 3.8 13.9 9.5 2 .2 3.8.9 5.2 1.9.7-8.3 7.4-15 15.5-15 8.7 0 15.7 7.4 15.7 16.5v.9c1.4-.6 3.1-.9 4.7-.9 2.2 0 4 .6 5.8 1.5 2.7-4.9 7.8-8.1 13.5-8.1 8.7 0 15.9 7.4 15.9 16.7 0 1.3-.2 2.7-.5 4H349.8v-.2Z"/>
    <path fill="url(#k)" fill-opacity=".95" d="m453.9 73.5 11.7 7.6 3.5-12.8-5.8-11.7c1.4-4.9 2.2-9 2.2-9 4.6-30.8-7.7-42.9-8.2-43.4-.2-.2-.2-.2-.4-.2h-.5c-.6.3-15.9 7.9-21.3 38.7 0 0-.6 4.1-.8 9.3l-9.2 9.3-.8 13.1 13.4-3.5 16.2 2.6Z"/>
    <path fill="url(#l)" d="M450.6 35.3999c3.9 0 7.1 3.2 7.1 7.1 0 3.9-3.2 7.1-7.1 7.1-3.9 0-7.1-3.2-7.1-7.1 0-3.9 3.2-7.1 7.1-7.1Z"/>
    <defs>
      <linearGradient id="a" x1="253.999" x2="253.999" y1="87.9359" y2="184.3" gradientUnits="userSpaceOnUse">
        <stop stop-color="#202F60"/>
        <stop offset="1" stop-color="#205060"/>
      </linearGradient>
      <linearGradient id="b" x1="355.418" x2="355.418" y1="87.9359" y2="227.293" gradientUnits="userSpaceOnUse">
        <stop stop-color="#202F60"/>
        <stop offset="1" stop-color="#205060"/>
      </linearGradient>
      <linearGradient id="c" x1="513.227" x2="513.227" y1="58.9211" y2="184.3" gradientUnits="userSpaceOnUse">
        <stop stop-color="#202F60"/>
        <stop offset="1" stop-color="#205060"/>
      </linearGradient>
      <linearGradient id="d" x1="611.438" x2="611.438" y1="88.1481" y2="184.3" gradientUnits="userSpaceOnUse">
        <stop stop-color="#202F60"/>
        <stop offset="1" stop-color="#205060"/>
      </linearGradient>
      <linearGradient id="e" x1="697.03" x2="697.03" y1="89.4194" y2="182.606" gradientUnits="userSpaceOnUse">
        <stop stop-color="#202F60"/>
        <stop offset="1" stop-color="#205060"/>
      </linearGradient>
      <linearGradient id="f" x1="70.7723" x2="70.7723" y1="65.2746" y2="82.2178" gradientUnits="userSpaceOnUse">
        <stop stop-color="#27AE60"/>
        <stop offset="1" stop-color="#34CDB1"/>
      </linearGradient>
      <linearGradient id="g" x1="52.7701" x2="52.7701" y1="132.412" y2="149.355" gradientUnits="userSpaceOnUse">
        <stop stop-color="#27AE60"/>
        <stop offset="1" stop-color="#34CDB1"/>
      </linearGradient>
      <linearGradient id="h" x1="102.578" x2="102.578" y1="65.2746" y2="182.605" gradientUnits="userSpaceOnUse">
        <stop stop-color="#202F60"/>
        <stop offset="1" stop-color="#205060"/>
      </linearGradient>
      <linearGradient id="i" x1="433.457" x2="433.457" y1="89.3999" y2="182.8" gradientUnits="userSpaceOnUse">
        <stop stop-color="#202F60"/>
        <stop offset="1" stop-color="#205060"/>
      </linearGradient>
      <linearGradient id="j" x1="414.377" x2="414.377" y1="196.35" y2="226.835" gradientUnits="userSpaceOnUse">
        <stop stop-color="#27AE60"/>
        <stop offset="1" stop-color="#34CDB1"/>
      </linearGradient>
      <linearGradient id="k" x1="446.747" x2="446.747" y1="4" y2="81.03" gradientUnits="userSpaceOnUse">
        <stop stop-color="#202F60"/>
        <stop offset="1" stop-color="#205060"/>
      </linearGradient>
      <linearGradient id="l" x1="450.624" x2="450.624" y1="35.4206" y2="49.5815" gradientUnits="userSpaceOnUse">
        <stop stop-color="#27AE60"/>
        <stop offset="1" stop-color="#34CDB1"/>
      </linearGradient>
    </defs>
  </svg>
